<?xml version="1.0" encoding="UTF-8"?><svg id="Calque_2" xmlns="http://www.w3.org/2000/svg" viewBox="0 0 1189.61 750.01"><defs><style>.cls-1{fill:#feeb09;}</style></defs><g id="Calque_1"><path class="cls-1" d="M614.51,253.76c-41.62,0-75.48-33.86-75.48-75.48h32c0,23.97,19.5,43.48,43.48,43.48s43.48-19.5,43.48-43.48h32c0,41.62-33.86,75.48-75.48,75.48Z"/><path class="cls-1" d="M614.51,308.28c-71.76,0-130.15-58.38-130.15-130.15s58.38-130.15,130.15-130.15,130.15,58.38,130.15,130.15-58.38,130.15-130.15,130.15ZM614.51,79.98c-54.12,0-98.15,44.03-98.15,98.15s44.03,98.15,98.15,98.15,98.15-44.03,98.15-98.15-44.03-98.15-98.15-98.15Z"/><path class="cls-1" d="M614.51,359.71c-42.59,0-84.05-9.1-123.24-27.06-31.15-14.27-60.9-34.12-88.4-59.01-46.66-42.21-70.67-84.14-71.67-85.9l-4.4-7.77,4.3-7.83c.97-1.77,24.34-43.78,70.71-86.04,27.32-24.91,57.04-44.77,88.34-59.06C529.47,9.1,571.32,0,614.51,0s85.04,9.1,124.36,27.05c31.29,14.28,61.01,34.15,88.34,59.06,46.37,42.27,69.74,84.27,70.71,86.04l4.3,7.83-4.4,7.77c-1,1.76-25.02,43.69-71.67,85.9-27.5,24.88-57.24,44.73-88.4,59.01-39.19,17.95-80.65,27.06-123.24,27.06ZM363.91,179.75c8.81,13.45,29.5,42.34,61.2,70.86,25.03,22.51,51.96,40.41,80.05,53.21,34.81,15.85,71.6,23.89,109.36,23.89s74.55-8.04,109.36-23.89c28.09-12.79,55.02-30.7,80.05-53.21,31.69-28.51,52.38-57.4,61.2-70.86-8.62-13.46-28.86-42.27-60.25-70.71-24.82-22.48-51.68-40.36-79.86-53.14-34.95-15.85-72.13-23.89-110.5-23.89s-75.55,8.04-110.5,23.89c-28.18,12.78-55.04,30.66-79.86,53.14-31.39,28.44-51.62,57.25-60.25,70.71Z"/><path class="cls-1" d="M80.72,511.89h-36.84v-149.8c0-1.25-.27-2.15-.82-2.7-.55-.55-1.45-.82-2.7-.82H3.52c-1.1,0-1.96.28-2.58.82-.63.55-.94,1.45-.94,2.7v182.18c0,1.25.31,2.15.94,2.7.62.55,1.48.82,2.58.82h77.2c1.25,0,2.15-.27,2.7-.82s.82-1.44.82-2.7v-28.86c0-1.25-.27-2.15-.82-2.7-.55-.55-1.45-.82-2.7-.82Z"/><path class="cls-1" d="M182.91,404.61c-9.78-8.52-22.57-12.79-38.37-12.79s-28.24,4.19-38.25,12.55c-10.01,8.37-15.41,20.85-16.19,37.43,0,1.25.27,2.11.82,2.58.55.47,1.37.7,2.46.7h28.63c1.25,0,2.11-.19,2.58-.59.47-.39.78-1.29.94-2.7.94-11.89,6.1-17.83,15.49-17.83,4.69,0,8.21,1.61,10.56,4.81,2.35,3.21,3.52,8.18,3.52,14.9v33.48c-3.6-1.56-7.31-2.78-11.15-3.64-3.84-.86-8.1-1.29-12.79-1.29-11.89,0-21.94,3.17-30.15,9.5-8.21,6.34-12.32,16.31-12.32,29.92,0,11.42,3.01,20.77,9.03,28.04,6.02,7.27,14.51,10.91,25.46,10.91,8.6,0,15.72-2.27,21.35-6.81,5.63-4.54,9.15-10.87,10.56-19.01h3.05l2.11,19.48c.15,1.25.59,2.15,1.29,2.7.7.55,1.6.82,2.7.82h29.8c1.25,0,2.15-.31,2.7-.94.55-.62.82-1.48.82-2.58v-97.78c0-19.4-4.89-33.36-14.67-41.89ZM153.81,518.46c-2.43,2.82-5.75,4.22-9.97,4.22s-7.27-1.44-9.62-4.34c-2.35-2.89-3.52-7.08-3.52-12.55,0-5.79,1.17-10.01,3.52-12.67,2.35-2.66,5.63-3.99,9.86-3.99s7.31,1.33,9.74,3.99c2.42,2.66,3.64,6.89,3.64,12.67s-1.21,9.86-3.64,12.67Z"/><path class="cls-1" d="M331.68,546.97c.55-.55.82-1.44.82-2.7v-28.86c0-1.25-.27-2.15-.82-2.7-.55-.55-1.45-.82-2.7-.82h-36.84v-131.42c0-1.25-.27-2.15-.82-2.7-.55-.55-1.45-.82-2.7-.82h-36.84c-1.1,0-1.96.28-2.58.82-.63.55-.94,1.45-.94,2.7v163.81c0,1.25.31,2.15.94,2.7.62.55,1.48.82,2.58.82h77.2c1.25,0,2.15-.27,2.7-.82Z"/><path class="cls-1" d="M370.28,550.37c10.32,0,18.03-2.93,23.11-8.8,5.08-5.87,8.17-14.58,9.27-26.16h3.29v28.86c0,1.25.27,2.15.82,2.7.55.55,1.37.82,2.46.82h35.67c1.25,0,2.15-.27,2.7-.82s.82-1.44.82-2.7v-130.76c0-1.25-.27-2.15-.82-2.7-.55-.55-1.45-.82-2.7-.82l-35.67-1.29c-1.1,0-1.92.28-2.46.82-.55.55-.82,1.45-.82,2.7v80.19c0,5.32-.98,9.66-2.93,13.02-1.96,3.37-5.36,5.04-10.21,5.04-3.6,0-6.34-1.17-8.21-3.52-1.88-2.35-2.82-5.87-2.82-10.56v-85.19c0-1.25-.27-2.15-.82-2.7-.55-.55-1.45-.82-2.7-.82l-35.43-1.69c-1.25,0-2.15.28-2.7.82-.55.55-.82,1.45-.82,2.7v103.78c0,11.89,2.62,21.04,7.86,27.45,5.24,6.42,12.94,9.62,23.11,9.62Z"/><path class="cls-1" d="M571.02,546.97c.55-.55.82-1.44.82-2.7v-95.04c0-11.89-2.66-21.04-7.98-27.45-5.32-6.41-13.14-9.62-23.46-9.62s-18.34,2.9-23.58,8.68c-5.24,5.79-8.49,15.03-9.74,26.76h-3.05v-32.91c0-1.25-.28-2.15-.82-2.7-.55-.55-1.45-.82-2.7-.82l-35.43-1c-1.25,0-2.15.28-2.7.82s-.82,1.45-.82,2.7v130.59c0,1.25.27,2.15.82,2.7.55.55,1.44.82,2.7.82h35.43c1.25,0,2.15-.27,2.7-.82.55-.55.82-1.44.82-2.7v-73.68c0-5.32,1.06-9.66,3.17-13.02,2.11-3.36,5.67-5.04,10.68-5.04,3.75,0,6.61,1.17,8.56,3.52,1.95,2.35,2.93,5.87,2.93,10.56v77.67c0,1.25.27,2.15.82,2.7.55.55,1.44.82,2.7.82h35.43c1.25,0,2.15-.27,2.7-.82Z"/><path class="cls-1" d="M687.64,487.02c-.55-.47-1.45-.7-2.7-.7h-29.1c-1.1,0-1.92.23-2.46.7-.55.47-.82,1.33-.82,2.58-.32,10.48-1.64,17.68-3.99,21.59-2.35,3.91-5.87,5.87-10.56,5.87-3.6,0-6.57-1.25-8.92-3.75-2.35-2.5-4.11-6.96-5.28-13.38-.98-5.35-1.55-12.39-1.71-21.12h62.84c1.25,0,2.15-.27,2.7-.82.55-.55.82-1.37.82-2.46.15-22.21-4.66-38.28-14.43-48.22-9.78-9.93-22.41-14.9-37.9-14.9-11.42,0-21.32,2.54-29.68,7.63-8.37,5.09-14.82,12.83-19.36,23.23-4.54,10.41-6.81,23.04-6.81,37.9s2.31,28.2,6.92,38.6c4.61,10.41,11.03,18.15,19.24,23.23,8.21,5.08,17.79,7.63,28.74,7.63,15.49,0,28.08-5,37.78-15.02,9.7-10.01,14.86-25.34,15.49-45.99,0-1.25-.27-2.11-.82-2.58ZM637.54,439.85c4.54,0,7.94,1.72,10.21,5.16,2.27,3.44,3.4,8.29,3.4,14.55h-28.46c.59-5.1,1.59-9.13,3-12.08,2.42-5.08,6.37-7.63,11.85-7.63Z"/><path class="cls-1" d="M694.79,441.98l8.45-.19v75.96c0,11.11,2.7,19.4,8.1,24.87,5.4,5.47,13.1,8.21,23.11,8.21,9.23,0,18.22-2.19,26.98-6.57.94-.62,1.68-1.33,2.23-2.11.55-.78.82-1.8.82-3.05v-25.34c0-1.25-.28-2.03-.82-2.35-.55-.31-1.37-.15-2.46.47-5.48,2.19-9.43,2.62-11.85,1.29-2.43-1.33-3.64-3.71-3.64-7.16v-65.18l17.78-.4h0l8.45-.19v77.5c0,11.11,2.7,19.4,8.1,24.87,5.4,5.47,13.1,8.21,23.11,8.21,9.23,0,18.22-2.19,26.98-6.57.94-.62,1.68-1.33,2.23-2.11.55-.78.82-1.8.82-3.05v-25.34c0-1.25-.28-2.03-.82-2.35-.55-.31-1.37-.15-2.46.47-5.48,2.19-9.43,2.62-11.85,1.29-2.43-1.33-3.64-3.71-3.64-7.16v-66.72l15.96-.36c1.25-.03,2.15-.32,2.7-.88.55-.56.82-1.46.82-2.72v-23.93c0-1.25-.28-2.14-.82-2.68-.55-.53-1.45-.79-2.7-.76l-15.72.35v-22.06c0-1.25-.27-2.14-.82-2.68-.55-.53-1.45-.79-2.7-.76l-1.88.04c-1.25.03-2.27.29-3.05.77-.78.49-1.41,1.36-1.88,2.62-3.6,7.44-8.88,13.03-15.84,16.78-4.93,2.66-10.56,4.73-16.86,6.24l-25.67.57v-22.06c0-1.25-.27-2.14-.82-2.68-.55-.53-1.45-.79-2.7-.76l-1.88.04c-1.25.03-2.27.29-3.05.77-.78.49-1.41,1.36-1.88,2.62-3.6,7.44-8.88,13.03-15.84,16.78-6.96,3.76-15.29,6.37-24.99,7.83-1.25.19-2.15.56-2.7,1.12-.55.56-.82,1.47-.82,2.72v22.29c0,1.25.27,2.15.82,2.68.55.54,1.44.79,2.7.76Z"/><path class="cls-1" d="M891.14,550.61c15.49,0,28.08-5,37.78-15.02,9.7-10.01,14.86-25.34,15.49-45.99,0-1.25-.27-2.11-.82-2.58-.55-.47-1.45-.7-2.7-.7h-29.1c-1.1,0-1.92.23-2.46.7-.55.47-.82,1.33-.82,2.58-.32,10.48-1.64,17.68-3.99,21.59-2.35,3.91-5.87,5.87-10.56,5.87-3.6,0-6.57-1.25-8.92-3.75-2.35-2.5-4.11-6.96-5.28-13.38-1-5.44-1.57-17.7-1.72-28.17h62.84c1.25,0,2.15-.27,2.7-.82.55-.55.82-1.37.82-2.46.15-22.21-4.66-38.28-14.43-48.22-9.78-9.93-22.41-14.9-37.9-14.9-11.42,0-21.32,2.54-29.68,7.63-8.37,5.09-14.82,12.83-19.36,23.23-4.54,10.41-6.81,23.04-6.81,37.9s2.31,35.25,6.92,45.65c4.61,10.41,11.03,18.15,19.24,23.23,8.21,5.08,17.79,7.63,28.74,7.63ZM893.49,432.8c4.54,0,7.94,1.72,10.21,5.16,2.27,3.44,3.4,8.29,3.4,14.55h-28.46c.59-5.1,1.59-9.13,3-12.08,2.42-5.08,6.37-7.63,11.85-7.63Z"/><path class="cls-1" d="M1018.08,397.23c-7.98.47-14.24,3.68-18.77,9.62-4.52,5.92-7.33,16.19-8.43,30.8h-3.07l-.23-34.17c0-1.25-.28-2.15-.82-2.7-.55-.55-1.45-.82-2.7-.82l-26.75,1.55c-1.25,0-2.15.28-2.7.82-.55.55-.82,1.45-.82,2.7v139.24c0,1.25.27,2.15.82,2.7.55.55,1.44.82,2.7.82h35.43c1.25,0,2.15-.27,2.7-.82.55-.55.82-1.44.82-2.7l.19-84.86c.57-6.42,2.38-11,5.44-13.73,3.6-3.2,8.99-4.96,16.19-5.28,1.25,0,2.15-.31,2.7-.94.55-.62.82-1.48.82-2.58v-36.37c0-1.25-.28-2.15-.82-2.7-.55-.55-1.45-.74-2.7-.59Z"/><path class="cls-1" d="M1068.77,393.03l-35.43,2.96c-1.25,0-2.15.28-2.7.82-.55.55-.82,1.45-.82,2.7v144.77c0,1.25.27,2.15.82,2.7.55.55,1.44.82,2.7.82h35.43c1.25,0,2.15-.27,2.7-.82.55-.55.82-1.44.82-2.7v-147.73c0-1.25-.27-2.15-.82-2.7-.55-.55-1.45-.82-2.7-.82Z"/><path class="cls-1" d="M1070.17,352.34c-4.22-3.75-10.48-5.63-18.77-5.63s-15.02,1.88-19.24,5.63-6.34,8.68-6.34,14.78,2.11,10.76,6.34,14.43c4.22,3.68,10.64,5.51,19.24,5.51s14.55-1.84,18.77-5.51c4.22-3.67,6.33-8.48,6.33-14.43s-2.11-11.03-6.33-14.78Z"/><path class="cls-1" d="M1186.09,486.31h-29.1c-1.1,0-1.92.23-2.46.7-.55.47-.82,1.33-.82,2.58-.32,10.48-1.64,17.68-3.99,21.59-2.35,3.91-5.87,5.87-10.56,5.87-3.6,0-6.57-1.25-8.92-3.75-2.35-2.5-4.11-6.96-5.28-13.38-1-5.44-1.57-17.41-1.72-27.8h62.84c1.25,0,2.15-.27,2.7-.82.55-.55.82-1.37.82-2.46.15-22.21-4.66-57.38-14.43-67.32-9.78-9.93-22.41-14.9-37.9-14.9-11.42,0-21.32,2.54-29.68,7.63-8.37,5.09-14.82,12.83-19.36,23.23-4.54,10.41-6.81,23.04-6.81,37.9s1.84,50.24,6.92,64.37c3.85,10.71,11.03,18.15,19.24,23.23,8.21,5.08,17.79,7.63,28.74,7.63,15.49,0,28.08-5,37.78-15.02,9.7-10.01,14.86-25.34,15.49-45.99,0-1.25-.27-2.11-.82-2.58-.55-.47-1.45-.7-2.7-.7ZM1138.69,414.08c4.54,0,7.94,1.72,10.21,5.16,2.27,3.44,3.4,27.39,3.4,33.64h-28.8c.49-12.46,1.61-27.53,3.35-31.18,2.42-5.08,6.37-7.63,11.85-7.63Z"/><path class="cls-1" d="M370.39,573.54h-35.67c-1.1,0-1.92.28-2.46.82-.55.55-.82,1.45-.82,2.7v61.62h-3.29c-.78-8.29-3.72-14.9-8.8-19.83-5.09-4.93-11.77-7.39-20.06-7.39-7.04,0-13.49,2.23-19.36,6.69-5.87,4.46-10.6,11.7-14.2,21.71-3.6,10.01-5.4,23-5.4,38.95,0,16.74,1.72,30.35,5.16,40.83,3.44,10.48,8.21,18.07,14.31,22.76s13.22,7.04,21.35,7.04c7.04,0,12.94-1.72,17.72-5.16,4.77-3.44,8.33-7.86,10.68-13.26,2.35-5.4,3.67-10.99,3.99-16.78h3.29v28.67c0,1.25.27,2.15.82,2.7.55.55,1.37.82,2.46.82l30.27-2c1.25,0,2.11-.27,2.58-.82.47-.55.7-1.44.7-2.7v-163.85c0-1.25-.23-2.15-.7-2.7-.47-.55-1.33-.82-2.58-.82ZM328.51,702.97c-2.74,5.16-6.22,7.74-10.44,7.74-4.54,0-8.06-2.62-10.56-7.86-2.5-5.24-3.75-13.65-3.75-25.23s1.21-19.28,3.64-24.52c2.42-5.24,6.06-7.86,10.91-7.86s8.45,2.46,10.79,7.39c2.35,4.93,3.52,13.34,3.52,25.23s-1.37,19.95-4.11,25.11Z"/><path class="cls-1" d="M492.17,605.22h-35.67c-1.1,0-1.92.28-2.46.82-.55.55-.82,1.45-.82,2.7v73.68c0,5.32-.98,9.66-2.93,13.02-1.96,3.37-5.36,5.04-10.21,5.04-3.6,0-6.34-1.17-8.21-3.52-1.88-2.35-2.82-5.87-2.82-10.56v-77.67c0-1.25-.27-2.15-.82-2.7-.55-.55-1.45-.82-2.7-.82h-35.43c-1.25,0-2.15.28-2.7.82-.55.55-.82,1.45-.82,2.7v97.2c0,11.89,2.62,21.04,7.86,27.45,5.24,6.42,12.94,9.62,23.11,9.62s18.03-2.93,23.11-8.8c5.08-5.87,8.17-14.58,9.27-26.16h3.29v29.95c0,1.25.27,2.15.82,2.7.55.55,1.37.82,2.46.82l35.67-1.21c1.25,0,2.15-.27,2.7-.82s.82-1.44.82-2.7v-128.05c0-1.25-.27-2.15-.82-2.7-.55-.55-1.45-.82-2.7-.82Z"/><path class="cls-1" d="M597.53,610.85c3.29-3.29,7.66-4.93,13.14-4.93,4.69,0,8.52,1.1,11.5,3.29,2.97,2.19,5.28,5.87,6.92,11.03,1.64,5.16,2.46,12.2,2.46,21.12,0,1.1.27,1.96.82,2.58.55.63,1.37.94,2.46.94h32.15c1.25,0,2.15-.31,2.7-.94.55-.62.82-1.48.82-2.58-.47-25.34-5.98-43.41-16.54-54.2-10.56-10.79-25.07-16.19-43.53-16.19-21.43,0-37.9,7.08-49.39,21.24-11.5,14.16-17.25,35.08-17.25,62.77s5.75,49.86,17.25,64.18c11.5,14.31,27.41,21.47,47.75,21.47,18.77,0,33.63-5.94,44.58-17.83,10.95-11.89,16.66-30.74,17.13-56.55,0-1.25-.27-2.15-.82-2.7-.55-.55-1.45-.82-2.7-.82h-32.15c-1.1,0-1.92.27-2.46.82-.55.55-.82,1.45-.82,2.7,0,9.23-.79,16.7-2.35,22.41-1.57,5.71-3.91,9.86-7.04,12.44-3.13,2.58-7.04,3.87-11.73,3.87-5.48,0-9.82-1.68-13.02-5.04-3.21-3.36-5.55-8.68-7.04-15.96-1.49-7.27-2.23-17.01-2.23-29.21s.74-21.15,2.23-28.28c1.49-7.12,3.87-12.32,7.16-15.6Z"/><path class="cls-1" d="M735.73,602.4c-17.83,0-31.88,5.71-42.12,17.13-10.25,11.42-15.37,28.71-15.37,51.86s5.12,40.91,15.37,52.33c10.24,11.42,24.29,17.13,42.12,17.13s31.68-5.75,42-17.25c10.32-11.5,15.49-28.98,15.49-52.44s-5.16-40.4-15.49-51.74c-10.32-11.34-24.33-17.01-42-17.01ZM746.76,697.55c-2.35,5.24-6.02,7.86-11.03,7.86-3.44,0-6.22-1.17-8.33-3.52-2.11-2.35-3.68-6.02-4.69-11.03-1.02-5-1.53-11.65-1.53-19.95,0-11.73,1.17-20.22,3.52-25.46,2.35-5.24,6.02-7.86,11.03-7.86s8.68,2.66,11.03,7.98c2.35,5.32,3.52,14.08,3.52,26.28s-1.17,20.45-3.52,25.69Z"/><path class="cls-1" d="M842.73,561.57c-4.22-3.75-10.48-5.63-18.77-5.63s-15.02,1.88-19.24,5.63-6.34,8.68-6.34,14.78,2.11,10.76,6.34,14.43c4.22,3.68,10.64,5.51,19.24,5.51s14.55-1.84,18.77-5.51c4.22-3.67,6.33-8.48,6.33-14.43s-2.11-11.03-6.33-14.78Z"/><path class="cls-1" d="M841.32,605.22h-35.43c-1.25,0-2.15.28-2.7.82-.55.55-.82,1.45-.82,2.7v129.99c0,1.25.27,2.15.82,2.7.55.55,1.44.82,2.7.82l35.43,1.21c1.25,0,2.15-.27,2.7-.82.55-.55.82-1.44.82-2.7v-131.21c0-1.25-.27-2.15-.82-2.7-.55-.55-1.45-.82-2.7-.82Z"/><path class="cls-1" d="M936.82,602.63c-10.48,0-18.34,2.9-23.58,8.68-5.24,5.79-8.49,14.55-9.74,26.28h-3.05v-28.86c0-1.25-.27-2.15-.82-2.7-.55-.55-1.45-.82-2.7-.82h-35.43c-1.25,0-2.15.28-2.7.82-.55.55-.82,1.45-.82,2.7v131.84c0,1.25.27,2.15.82,2.7.55.55,1.44.82,2.7.82l35.43,1.79c1.25,0,2.15-.27,2.7-.82.55-.55.82-1.44.82-2.7v-81.77c0-5.32,1.06-9.66,3.17-13.02,2.11-3.36,5.67-5.04,10.68-5.04,3.75,0,6.61,1.17,8.56,3.52,1.95,2.35,2.93,5.87,2.93,10.56v87.7c0,1.25.27,2.15.82,2.7.55.55,1.44.82,2.7.82l35.43,2.18c1.25,0,2.15-.27,2.7-.82.55-.55.82-1.44.82-2.7v-106.78c0-11.89-2.66-21.04-7.98-27.45-5.32-6.41-13.14-9.62-23.46-9.62Z"/></g></svg>