<?xml version="1.0" encoding="UTF-8"?><svg id="Calque_2" xmlns="http://www.w3.org/2000/svg" viewBox="0 0 1189.61 961.82"><g id="Calque_1"><path d="M614.51,253.76c-41.62,0-75.48-33.86-75.48-75.48h32c0,23.97,19.5,43.48,43.48,43.48s43.48-19.5,43.48-43.48h32c0,41.62-33.86,75.48-75.48,75.48Z"/><path d="M614.51,308.28c-71.76,0-130.15-58.38-130.15-130.15s58.38-130.15,130.15-130.15,130.15,58.38,130.15,130.15-58.38,130.15-130.15,130.15ZM614.51,79.98c-54.12,0-98.15,44.03-98.15,98.15s44.03,98.15,98.15,98.15,98.15-44.03,98.15-98.15-44.03-98.15-98.15-98.15Z"/><path d="M614.51,359.71c-42.59,0-84.05-9.1-123.24-27.06-31.15-14.27-60.9-34.12-88.4-59.01-46.66-42.21-70.67-84.14-71.67-85.9l-4.4-7.77,4.3-7.83c.97-1.77,24.34-43.78,70.71-86.04,27.32-24.91,57.04-44.77,88.34-59.06C529.47,9.1,571.32,0,614.51,0s85.04,9.1,124.36,27.05c31.29,14.28,61.01,34.15,88.34,59.06,46.37,42.27,69.74,84.27,70.71,86.04l4.3,7.83-4.4,7.77c-1,1.76-25.02,43.69-71.67,85.9-27.5,24.88-57.24,44.73-88.4,59.01-39.19,17.95-80.65,27.06-123.24,27.06ZM363.91,179.75c8.81,13.45,29.5,42.34,61.2,70.86,25.03,22.51,51.96,40.41,80.05,53.21,34.81,15.85,71.6,23.89,109.36,23.89s74.55-8.04,109.36-23.89c28.09-12.79,55.02-30.7,80.05-53.21,31.69-28.51,52.38-57.4,61.2-70.86-8.62-13.46-28.86-42.27-60.25-70.71-24.82-22.48-51.68-40.36-79.86-53.14-34.95-15.85-72.13-23.89-110.5-23.89s-75.55,8.04-110.5,23.89c-28.18,12.78-55.04,30.66-79.86,53.14-31.39,28.44-51.62,57.25-60.25,70.71Z"/><path d="M80.72,511.89h-36.84v-149.8c0-1.25-.27-2.15-.82-2.7-.55-.55-1.45-.82-2.7-.82H3.52c-1.1,0-1.96.28-2.58.82-.63.55-.94,1.45-.94,2.7v182.18c0,1.25.31,2.15.94,2.7.62.55,1.48.82,2.58.82h77.2c1.25,0,2.15-.27,2.7-.82s.82-1.44.82-2.7v-28.86c0-1.25-.27-2.15-.82-2.7-.55-.55-1.45-.82-2.7-.82Z"/><path d="M182.91,404.61c-9.78-8.52-22.57-12.79-38.37-12.79s-28.24,4.19-38.25,12.55c-10.01,8.37-15.41,20.85-16.19,37.43,0,1.25.27,2.11.82,2.58.55.47,1.37.7,2.46.7h28.63c1.25,0,2.11-.19,2.58-.59.47-.39.78-1.29.94-2.7.94-11.89,6.1-17.83,15.49-17.83,4.69,0,8.21,1.61,10.56,4.81,2.35,3.21,3.52,8.18,3.52,14.9v33.48c-3.6-1.56-7.31-2.78-11.15-3.64-3.84-.86-8.1-1.29-12.79-1.29-11.89,0-21.94,3.17-30.15,9.5-8.21,6.34-12.32,16.31-12.32,29.92,0,11.42,3.01,20.77,9.03,28.04,6.02,7.27,14.51,10.91,25.46,10.91,8.6,0,15.72-2.27,21.35-6.81,5.63-4.54,9.15-10.87,10.56-19.01h3.05l2.11,19.48c.15,1.25.59,2.15,1.29,2.7.7.55,1.6.82,2.7.82h29.8c1.25,0,2.15-.31,2.7-.94.55-.62.82-1.48.82-2.58v-97.78c0-19.4-4.89-33.36-14.67-41.89ZM153.81,518.46c-2.43,2.82-5.75,4.22-9.97,4.22s-7.27-1.44-9.62-4.34c-2.35-2.89-3.52-7.08-3.52-12.55,0-5.79,1.17-10.01,3.52-12.67,2.35-2.66,5.63-3.99,9.86-3.99s7.31,1.33,9.74,3.99c2.42,2.66,3.64,6.89,3.64,12.67s-1.21,9.86-3.64,12.67Z"/><path d="M331.68,546.97c.55-.55.82-1.44.82-2.7v-28.86c0-1.25-.27-2.15-.82-2.7-.55-.55-1.45-.82-2.7-.82h-36.84v-131.42c0-1.25-.27-2.15-.82-2.7-.55-.55-1.45-.82-2.7-.82h-36.84c-1.1,0-1.96.28-2.58.82-.63.55-.94,1.45-.94,2.7v163.81c0,1.25.31,2.15.94,2.7.62.55,1.48.82,2.58.82h77.2c1.25,0,2.15-.27,2.7-.82Z"/><path d="M370.28,550.37c10.32,0,18.03-2.93,23.11-8.8,5.08-5.87,8.17-14.58,9.27-26.16h3.29v28.86c0,1.25.27,2.15.82,2.7.55.55,1.37.82,2.46.82h35.67c1.25,0,2.15-.27,2.7-.82s.82-1.44.82-2.7v-130.76c0-1.25-.27-2.15-.82-2.7-.55-.55-1.45-.82-2.7-.82l-35.67-1.29c-1.1,0-1.92.28-2.46.82-.55.55-.82,1.45-.82,2.7v80.19c0,5.32-.98,9.66-2.93,13.02-1.96,3.37-5.36,5.04-10.21,5.04-3.6,0-6.34-1.17-8.21-3.52-1.88-2.35-2.82-5.87-2.82-10.56v-85.19c0-1.25-.27-2.15-.82-2.7-.55-.55-1.45-.82-2.7-.82l-35.43-1.69c-1.25,0-2.15.28-2.7.82-.55.55-.82,1.45-.82,2.7v103.78c0,11.89,2.62,21.04,7.86,27.45,5.24,6.42,12.94,9.62,23.11,9.62Z"/><path d="M571.02,546.97c.55-.55.82-1.44.82-2.7v-95.04c0-11.89-2.66-21.04-7.98-27.45-5.32-6.41-13.14-9.62-23.46-9.62s-18.34,2.9-23.58,8.68c-5.24,5.79-8.49,15.03-9.74,26.76h-3.05v-32.91c0-1.25-.28-2.15-.82-2.7-.55-.55-1.45-.82-2.7-.82l-35.43-1c-1.25,0-2.15.28-2.7.82s-.82,1.45-.82,2.7v130.59c0,1.25.27,2.15.82,2.7.55.55,1.44.82,2.7.82h35.43c1.25,0,2.15-.27,2.7-.82.55-.55.82-1.44.82-2.7v-73.68c0-5.32,1.06-9.66,3.17-13.02,2.11-3.36,5.67-5.04,10.68-5.04,3.75,0,6.61,1.17,8.56,3.52,1.95,2.35,2.93,5.87,2.93,10.56v77.67c0,1.25.27,2.15.82,2.7.55.55,1.44.82,2.7.82h35.43c1.25,0,2.15-.27,2.7-.82Z"/><path d="M687.64,487.02c-.55-.47-1.45-.7-2.7-.7h-29.1c-1.1,0-1.92.23-2.46.7-.55.47-.82,1.33-.82,2.58-.32,10.48-1.64,17.68-3.99,21.59-2.35,3.91-5.87,5.87-10.56,5.87-3.6,0-6.57-1.25-8.92-3.75-2.35-2.5-4.11-6.96-5.28-13.38-.98-5.35-1.55-12.39-1.71-21.12h62.84c1.25,0,2.15-.27,2.7-.82.55-.55.82-1.37.82-2.46.15-22.21-4.66-38.28-14.43-48.22-9.78-9.93-22.41-14.9-37.9-14.9-11.42,0-21.32,2.54-29.68,7.63-8.37,5.09-14.82,12.83-19.36,23.23-4.54,10.41-6.81,23.04-6.81,37.9s2.31,28.2,6.92,38.6c4.61,10.41,11.03,18.15,19.24,23.23,8.21,5.08,17.79,7.63,28.74,7.63,15.49,0,28.08-5,37.78-15.02,9.7-10.01,14.86-25.34,15.49-45.99,0-1.25-.27-2.11-.82-2.58ZM637.54,439.85c4.54,0,7.94,1.72,10.21,5.16,2.27,3.44,3.4,8.29,3.4,14.55h-28.46c.59-5.1,1.59-9.13,3-12.08,2.42-5.08,6.37-7.63,11.85-7.63Z"/><path d="M694.79,441.98l8.45-.19v75.96c0,11.11,2.7,19.4,8.1,24.87,5.4,5.47,13.1,8.21,23.11,8.21,9.23,0,18.22-2.19,26.98-6.57.94-.62,1.68-1.33,2.23-2.11.55-.78.82-1.8.82-3.05v-25.34c0-1.25-.28-2.03-.82-2.35-.55-.31-1.37-.15-2.46.47-5.48,2.19-9.43,2.62-11.85,1.29-2.43-1.33-3.64-3.71-3.64-7.16v-65.18l17.78-.4h0l8.45-.19v77.5c0,11.11,2.7,19.4,8.1,24.87,5.4,5.47,13.1,8.21,23.11,8.21,9.23,0,18.22-2.19,26.98-6.57.94-.62,1.68-1.33,2.23-2.11.55-.78.82-1.8.82-3.05v-25.34c0-1.25-.28-2.03-.82-2.35-.55-.31-1.37-.15-2.46.47-5.48,2.19-9.43,2.62-11.85,1.29-2.43-1.33-3.64-3.71-3.64-7.16v-66.72l15.96-.36c1.25-.03,2.15-.32,2.7-.88.55-.56.82-1.46.82-2.72v-23.93c0-1.25-.28-2.14-.82-2.68-.55-.53-1.45-.79-2.7-.76l-15.72.35v-22.06c0-1.25-.27-2.14-.82-2.68-.55-.53-1.45-.79-2.7-.76l-1.88.04c-1.25.03-2.27.29-3.05.77-.78.49-1.41,1.36-1.88,2.62-3.6,7.44-8.88,13.03-15.84,16.78-4.93,2.66-10.56,4.73-16.86,6.24l-25.67.57v-22.06c0-1.25-.27-2.14-.82-2.68-.55-.53-1.45-.79-2.7-.76l-1.88.04c-1.25.03-2.27.29-3.05.77-.78.49-1.41,1.36-1.88,2.62-3.6,7.44-8.88,13.03-15.84,16.78-6.96,3.76-15.29,6.37-24.99,7.83-1.25.19-2.15.56-2.7,1.12-.55.56-.82,1.47-.82,2.72v22.29c0,1.25.27,2.15.82,2.68.55.54,1.44.79,2.7.76Z"/><path d="M891.14,550.61c15.49,0,28.08-5,37.78-15.02,9.7-10.01,14.86-25.34,15.49-45.99,0-1.25-.27-2.11-.82-2.58-.55-.47-1.45-.7-2.7-.7h-29.1c-1.1,0-1.92.23-2.46.7-.55.47-.82,1.33-.82,2.58-.32,10.48-1.64,17.68-3.99,21.59-2.35,3.91-5.87,5.87-10.56,5.87-3.6,0-6.57-1.25-8.92-3.75-2.35-2.5-4.11-6.96-5.28-13.38-1-5.44-1.57-17.7-1.72-28.17h62.84c1.25,0,2.15-.27,2.7-.82.55-.55.82-1.37.82-2.46.15-22.21-4.66-38.28-14.43-48.22-9.78-9.93-22.41-14.9-37.9-14.9-11.42,0-21.32,2.54-29.68,7.63-8.37,5.09-14.82,12.83-19.36,23.23-4.54,10.41-6.81,23.04-6.81,37.9s2.31,35.25,6.92,45.65c4.61,10.41,11.03,18.15,19.24,23.23,8.21,5.08,17.79,7.63,28.74,7.63ZM893.49,432.8c4.54,0,7.94,1.72,10.21,5.16,2.27,3.44,3.4,8.29,3.4,14.55h-28.46c.59-5.1,1.59-9.13,3-12.08,2.42-5.08,6.37-7.63,11.85-7.63Z"/><path d="M1018.08,397.23c-7.98.47-14.24,3.68-18.77,9.62-4.52,5.92-7.33,16.19-8.43,30.8h-3.07l-.23-34.17c0-1.25-.28-2.15-.82-2.7-.55-.55-1.45-.82-2.7-.82l-26.75,1.55c-1.25,0-2.15.28-2.7.82-.55.55-.82,1.45-.82,2.7v139.24c0,1.25.27,2.15.82,2.7.55.55,1.44.82,2.7.82h35.43c1.25,0,2.15-.27,2.7-.82.55-.55.82-1.44.82-2.7l.19-84.86c.57-6.42,2.38-11,5.44-13.73,3.6-3.2,8.99-4.96,16.19-5.28,1.25,0,2.15-.31,2.7-.94.55-.62.82-1.48.82-2.58v-36.37c0-1.25-.28-2.15-.82-2.7-.55-.55-1.45-.74-2.7-.59Z"/><path d="M1068.77,393.03l-35.43,2.96c-1.25,0-2.15.28-2.7.82-.55.55-.82,1.45-.82,2.7v144.77c0,1.25.27,2.15.82,2.7.55.55,1.44.82,2.7.82h35.43c1.25,0,2.15-.27,2.7-.82.55-.55.82-1.44.82-2.7v-147.73c0-1.25-.27-2.15-.82-2.7-.55-.55-1.45-.82-2.7-.82Z"/><path d="M1070.17,352.34c-4.22-3.75-10.48-5.63-18.77-5.63s-15.02,1.88-19.24,5.63-6.34,8.68-6.34,14.78,2.11,10.76,6.34,14.43c4.22,3.68,10.64,5.51,19.24,5.51s14.55-1.84,18.77-5.51c4.22-3.67,6.33-8.48,6.33-14.43s-2.11-11.03-6.33-14.78Z"/><path d="M1186.09,486.31h-29.1c-1.1,0-1.92.23-2.46.7-.55.47-.82,1.33-.82,2.58-.32,10.48-1.64,17.68-3.99,21.59-2.35,3.91-5.87,5.87-10.56,5.87-3.6,0-6.57-1.25-8.92-3.75-2.35-2.5-4.11-6.96-5.28-13.38-1-5.44-1.57-17.41-1.72-27.8h62.84c1.25,0,2.15-.27,2.7-.82.55-.55.82-1.37.82-2.46.15-22.21-4.66-57.38-14.43-67.32-9.78-9.93-22.41-14.9-37.9-14.9-11.42,0-21.32,2.54-29.68,7.63-8.37,5.09-14.82,12.83-19.36,23.23-4.54,10.41-6.81,23.04-6.81,37.9s1.84,50.24,6.92,64.37c3.85,10.71,11.03,18.15,19.24,23.23,8.21,5.08,17.79,7.63,28.74,7.63,15.49,0,28.08-5,37.78-15.02,9.7-10.01,14.86-25.34,15.49-45.99,0-1.25-.27-2.11-.82-2.58-.55-.47-1.45-.7-2.7-.7ZM1138.69,414.08c4.54,0,7.94,1.72,10.21,5.16,2.27,3.44,3.4,27.39,3.4,33.64h-28.8c.49-12.46,1.61-27.53,3.35-31.18,2.42-5.08,6.37-7.63,11.85-7.63Z"/><path d="M370.39,573.54h-35.67c-1.1,0-1.92.28-2.46.82-.55.55-.82,1.45-.82,2.7v61.62h-3.29c-.78-8.29-3.72-14.9-8.8-19.83-5.09-4.93-11.77-7.39-20.06-7.39-7.04,0-13.49,2.23-19.36,6.69-5.87,4.46-10.6,11.7-14.2,21.71-3.6,10.01-5.4,23-5.4,38.95,0,16.74,1.72,30.35,5.16,40.83,3.44,10.48,8.21,18.07,14.31,22.76s13.22,7.04,21.35,7.04c7.04,0,12.94-1.72,17.72-5.16,4.77-3.44,8.33-7.86,10.68-13.26,2.35-5.4,3.67-10.99,3.99-16.78h3.29v28.67c0,1.25.27,2.15.82,2.7.55.55,1.37.82,2.46.82l30.27-2c1.25,0,2.11-.27,2.58-.82.47-.55.7-1.44.7-2.7v-163.85c0-1.25-.23-2.15-.7-2.7-.47-.55-1.33-.82-2.58-.82ZM328.51,702.97c-2.74,5.16-6.22,7.74-10.44,7.74-4.54,0-8.06-2.62-10.56-7.86-2.5-5.24-3.75-13.65-3.75-25.23s1.21-19.28,3.64-24.52c2.42-5.24,6.06-7.86,10.91-7.86s8.45,2.46,10.79,7.39c2.35,4.93,3.52,13.34,3.52,25.23s-1.37,19.95-4.11,25.11Z"/><path d="M492.17,605.22h-35.67c-1.1,0-1.92.28-2.46.82-.55.55-.82,1.45-.82,2.7v73.68c0,5.32-.98,9.66-2.93,13.02-1.96,3.37-5.36,5.04-10.21,5.04-3.6,0-6.34-1.17-8.21-3.52-1.88-2.35-2.82-5.87-2.82-10.56v-77.67c0-1.25-.27-2.15-.82-2.7-.55-.55-1.45-.82-2.7-.82h-35.43c-1.25,0-2.15.28-2.7.82-.55.55-.82,1.45-.82,2.7v97.2c0,11.89,2.62,21.04,7.86,27.45,5.24,6.42,12.94,9.62,23.11,9.62s18.03-2.93,23.11-8.8c5.08-5.87,8.17-14.58,9.27-26.16h3.29v29.95c0,1.25.27,2.15.82,2.7.55.55,1.37.82,2.46.82l35.67-1.21c1.25,0,2.15-.27,2.7-.82s.82-1.44.82-2.7v-128.05c0-1.25-.27-2.15-.82-2.7-.55-.55-1.45-.82-2.7-.82Z"/><path d="M597.53,610.85c3.29-3.29,7.66-4.93,13.14-4.93,4.69,0,8.52,1.1,11.5,3.29,2.97,2.19,5.28,5.87,6.92,11.03,1.64,5.16,2.46,12.2,2.46,21.12,0,1.1.27,1.96.82,2.58.55.63,1.37.94,2.46.94h32.15c1.25,0,2.15-.31,2.7-.94.55-.62.82-1.48.82-2.58-.47-25.34-5.98-43.41-16.54-54.2-10.56-10.79-25.07-16.19-43.53-16.19-21.43,0-37.9,7.08-49.39,21.24-11.5,14.16-17.25,35.08-17.25,62.77s5.75,49.86,17.25,64.18c11.5,14.31,27.41,21.47,47.75,21.47,18.77,0,33.63-5.94,44.58-17.83,10.95-11.89,16.66-30.74,17.13-56.55,0-1.25-.27-2.15-.82-2.7-.55-.55-1.45-.82-2.7-.82h-32.15c-1.1,0-1.92.27-2.46.82-.55.55-.82,1.45-.82,2.7,0,9.23-.79,16.7-2.35,22.41-1.57,5.71-3.91,9.86-7.04,12.44-3.13,2.58-7.04,3.87-11.73,3.87-5.48,0-9.82-1.68-13.02-5.04-3.21-3.36-5.55-8.68-7.04-15.96-1.49-7.27-2.23-17.01-2.23-29.21s.74-21.15,2.23-28.28c1.49-7.12,3.87-12.32,7.16-15.6Z"/><path d="M735.73,602.4c-17.83,0-31.88,5.71-42.12,17.13-10.25,11.42-15.37,28.71-15.37,51.86s5.12,40.91,15.37,52.33c10.24,11.42,24.29,17.13,42.12,17.13s31.68-5.75,42-17.25c10.32-11.5,15.49-28.98,15.49-52.44s-5.16-40.4-15.49-51.74c-10.32-11.34-24.33-17.01-42-17.01ZM746.76,697.55c-2.35,5.24-6.02,7.86-11.03,7.86-3.44,0-6.22-1.17-8.33-3.52-2.11-2.35-3.68-6.02-4.69-11.03-1.02-5-1.53-11.65-1.53-19.95,0-11.73,1.17-20.22,3.52-25.46,2.35-5.24,6.02-7.86,11.03-7.86s8.68,2.66,11.03,7.98c2.35,5.32,3.52,14.08,3.52,26.28s-1.17,20.45-3.52,25.69Z"/><path d="M842.73,561.57c-4.22-3.75-10.48-5.63-18.77-5.63s-15.02,1.88-19.24,5.63-6.34,8.68-6.34,14.78,2.11,10.76,6.34,14.43c4.22,3.68,10.64,5.51,19.24,5.51s14.55-1.84,18.77-5.51c4.22-3.67,6.33-8.48,6.33-14.43s-2.11-11.03-6.33-14.78Z"/><path d="M841.32,605.22h-35.43c-1.25,0-2.15.28-2.7.82-.55.55-.82,1.45-.82,2.7v129.99c0,1.25.27,2.15.82,2.7.55.55,1.44.82,2.7.82l35.43,1.21c1.25,0,2.15-.27,2.7-.82.55-.55.82-1.44.82-2.7v-131.21c0-1.25-.27-2.15-.82-2.7-.55-.55-1.45-.82-2.7-.82Z"/><path d="M936.82,602.63c-10.48,0-18.34,2.9-23.58,8.68-5.24,5.79-8.49,14.55-9.74,26.28h-3.05v-28.86c0-1.25-.27-2.15-.82-2.7-.55-.55-1.45-.82-2.7-.82h-35.43c-1.25,0-2.15.28-2.7.82-.55.55-.82,1.45-.82,2.7v131.84c0,1.25.27,2.15.82,2.7.55.55,1.44.82,2.7.82l35.43,1.79c1.25,0,2.15-.27,2.7-.82.55-.55.82-1.44.82-2.7v-81.77c0-5.32,1.06-9.66,3.17-13.02,2.11-3.36,5.67-5.04,10.68-5.04,3.75,0,6.61,1.17,8.56,3.52,1.95,2.35,2.93,5.87,2.93,10.56v87.7c0,1.25.27,2.15.82,2.7.55.55,1.44.82,2.7.82l35.43,2.18c1.25,0,2.15-.27,2.7-.82.55-.55.82-1.44.82-2.7v-106.78c0-11.89-2.66-21.04-7.98-27.45-5.32-6.41-13.14-9.62-23.46-9.62Z"/><path d="M392.76,872.95c-.02-.23.07-.46.26-.68l21.73-25.06c.22-.25.43-.38.65-.38.22,0,.45.11.7.32l7.92,6.86c.25.22.38.43.4.63.01.2-.09.43-.3.68l-5.48,6.32.66.57c2.38-2.31,4.66-3.63,6.84-3.96s4.37.46,6.59,2.39c2.12,1.84,3.16,3.88,3.1,6.13-.06,2.25-1.13,4.57-3.22,6.98l-16.25,18.74c-.19.22-.39.34-.61.37-.22.03-.45-.06-.7-.28l-7.92-6.86c-.25-.22-.38-.44-.4-.67-.02-.23.07-.46.26-.68l12.96-14.94c.73-.84,1.11-1.62,1.13-2.34.02-.72-.31-1.38-1-1.97-.94-.81-1.86-1.08-2.76-.79-.9.28-1.79.93-2.65,1.93l-12.27,14.15c-.19.22-.39.34-.61.37-.22.03-.45-.06-.7-.28l-7.92-6.86c-.25-.22-.38-.44-.4-.67Z"/><path d="M428.13,900.57c-1.16-2.41-1.5-5.12-1.03-8.13.47-3,1.84-6.18,4.12-9.53,2.23-3.28,4.64-5.68,7.22-7.2,2.58-1.52,5.22-2.18,7.92-2,2.7.19,5.35,1.16,7.94,2.93,3.52,2.39,5.67,5.45,6.45,9.15.78,3.71-.45,7.98-3.7,12.82-.22.25-.44.4-.65.46-.21.06-.44,0-.68-.16l-14.92-10.15,1.54-.6c-1.54,2.26-2.61,4.11-3.23,5.57-.62,1.46-.85,2.61-.7,3.46.15.85.6,1.53,1.35,2.04.92.63,1.9.73,2.94.31,1.04-.42,2.26-1.63,3.66-3.62.22-.25.42-.4.61-.45.18-.05.41.02.69.2l7.02,4.78c.27.19.41.38.42.59,0,.21-.08.45-.26.72-3.15,4.41-6.59,6.94-10.34,7.59-3.74.65-7.38-.22-10.9-2.61-2.5-1.7-4.32-3.75-5.48-6.17ZM442.14,883.74l8.1,5.51c.88-1.3,1.34-2.45,1.37-3.45.03-1-.41-1.82-1.34-2.45-1.13-.77-2.29-.8-3.5-.09-1.21.71-2.61,2.24-4.21,4.59l-.43-4.11Z"/><path d="M455.2,917.43c-.46-2.2.04-4.71,1.51-7.53l11.45-22c.15-.29.34-.47.55-.52.21-.05.45-.01.71.12l9.35,4.87c.29.15.47.33.53.52.06.2.02.44-.14.73l-9.13,17.54c-.52.99-.7,1.84-.55,2.54.15.7.6,1.26,1.37,1.66,1.06.55,1.99.58,2.79.09.79-.5,1.5-1.33,2.11-2.5l8.65-16.61c.15-.29.33-.47.52-.53.19-.06.44-.02.73.14l9.29,4.84c.29.15.48.33.56.54.08.21.04.45-.11.75l-15.32,29.42c-.13.26-.31.42-.54.49-.22.07-.48.03-.77-.12l-9.29-4.84c-.29-.15-.47-.34-.52-.55-.05-.21-.01-.45.12-.71l3.87-7.42-.77-.4c-1.78,2.8-3.68,4.62-5.68,5.47-2,.85-4.3.59-6.91-.76-2.46-1.28-3.92-3.02-4.38-5.22Z"/><path d="M487.37,935.22c-.07-.21-.06-.44.05-.71l10.83-27.12,1.9,4.43-3.8-1.52c-.31-.12-.49-.27-.55-.45-.06-.18,0-.41.21-.69l2.1-3.1c1.32-1.97,2.9-3.61,4.73-4.92,1.84-1.31,4.22-2.03,7.14-2.16s6.38.72,10.37,2.54c.29.16.48.34.56.52.08.19.06.44-.06.74l-2.51,6.28c-.12.31-.28.5-.47.58-.19.08-.43.04-.72-.12-1.54-.71-2.84-1.17-3.89-1.38-1.05-.22-1.95-.16-2.71.19-.76.34-1.36,1.07-1.81,2.18l-1.05-1.22,7.43,2.96c.31.12.5.28.58.47.08.19.06.44-.06.74l-2.07,5.18c-.12.31-.28.5-.47.58-.19.08-.44.06-.74-.06l-6.33-2.53,2.92-2.64-10.02,25.11c-.11.27-.26.45-.46.55-.2.1-.45.09-.75-.03l-9.79-3.91c-.31-.12-.5-.29-.57-.49Z"/><path d="M527.53,949c-1.43-1.47-2.33-3.15-2.7-5.06-.38-1.91-.34-3.87.12-5.88.76-3.39,2.5-5.88,5.21-7.47s6.4-2.31,11.07-2.14l1.39,5.97c-1.54.08-2.79.43-3.74,1.06-.95.63-1.58,1.66-1.9,3.07-.3,1.33-.22,2.45.23,3.36.45.91,1.22,1.48,2.31,1.73,1.05.24,2.01.16,2.88-.24.87-.4,1.66-1.13,2.37-2.2l4.5,4.83-2.41,1.11-1.15-.26c-1.33,2.54-3.03,4.19-5.09,4.95-2.06.76-4.44.84-7.14.23-2.54-.57-4.52-1.59-5.95-3.06ZM549.42,954.7c-.21-.18-.37-.42-.47-.74l-8.7-22.87c-1.13-3.05-1.91-5.5-2.31-7.35-.41-1.85-.4-3.7.01-5.56.75-3.31,2.53-5.63,5.35-6.96,2.82-1.33,6.19-1.56,10.1-.68,3.63.82,6.44,2.35,8.43,4.6,1.99,2.25,2.61,5.05,1.86,8.4-.59,2.62-1.97,4.75-4.14,6.38-2.17,1.63-5.58,2.9-10.23,3.79l-1.51-5.42c2.82-.47,4.84-1.2,6.06-2.19,1.22-1,1.96-2.08,2.23-3.25.22-.97.15-1.79-.21-2.46-.36-.67-1.02-1.12-1.99-1.34-.97-.22-1.79-.08-2.48.43-.69.5-1.14,1.24-1.35,2.21-.19.85-.13,1.84.19,2.97.32,1.13.9,2.81,1.76,5.04l10.37,27.32c.14.33.15.54.05.65-.11.1-.32.12-.65.04l-11.55-2.6c-.32-.07-.59-.2-.81-.37ZM553.78,939.29l.71-.35.91.2,4.75-5.28c.22-.25.46-.4.71-.48.25-.07.51-.07.8-.01l6.77,1.53c.32.07.51.17.57.29.06.12-.05.32-.32.59l-11.62,11.81-3.28-8.3Z"/><path d="M587.8,956.66c-2.73-3.2-3.96-7.82-3.69-13.85.27-6.03,1.91-10.52,4.92-13.46,3.01-2.95,6.99-4.31,11.94-4.09,5,.22,8.85,1.93,11.56,5.11,2.71,3.18,3.93,7.79,3.66,13.82-.27,6.03-1.9,10.53-4.89,13.5s-6.98,4.34-11.98,4.12c-4.96-.22-8.8-1.93-11.53-5.14ZM602.53,949.78c.63-1.21,1.01-3.24,1.14-6.09.13-2.81-.07-4.85-.59-6.14-.52-1.28-1.38-1.95-2.58-2.01-1.2-.05-2.11.53-2.75,1.74-.63,1.21-1.01,3.2-1.14,5.97-.09,1.94-.02,3.51.19,4.69.22,1.19.57,2.07,1.06,2.65.49.58,1.13.89,1.91.92,1.2.05,2.11-.53,2.75-1.74Z"/><path d="M625.38,957.38c-3.02-2.91-4.75-7.34-5.17-13.28-.42-5.98.67-10.6,3.27-13.88,2.61-3.27,6.44-5.09,11.52-5.45,4.41-.31,8.05.62,10.92,2.8,2.87,2.18,4.57,5.88,5.11,11.1.02.33-.03.58-.16.76-.13.18-.36.27-.69.3l-9.15.65c-.33.02-.57-.04-.73-.2-.16-.15-.27-.39-.33-.72-.25-1.76-.7-3.01-1.35-3.73-.65-.72-1.51-1.04-2.59-.97-.91.06-1.63.41-2.17,1.02-.54.62-.9,1.54-1.08,2.75-.18,1.22-.21,2.75-.08,4.6.13,1.9.38,3.44.73,4.64.35,1.2.85,2.07,1.49,2.63.64.56,1.41.8,2.32.74.66-.05,1.23-.25,1.7-.62.47-.36.84-.93,1.09-1.69.26-.76.38-1.81.37-3.13.02-.33.09-.58.23-.73.13-.15.37-.24.7-.27l9.15-.65c.33-.02.57.03.73.17.15.13.24.37.27.7.21,5.25-.96,9.2-3.51,11.84-2.55,2.65-6.05,4.13-10.5,4.44-5.03.36-9.06-.92-12.08-3.83Z"/><path d="M661.91,953.98c-3.34-2.54-5.56-6.74-6.67-12.59-1.11-5.89-.56-10.61,1.65-14.16,2.21-3.55,5.81-5.8,10.81-6.74,4.35-.82,8.07-.31,11.17,1.52,3.1,1.83,5.22,5.31,6.36,10.44.06.33.04.58-.08.77-.11.19-.33.31-.65.38l-9.02,1.7c-.33.06-.57.02-.75-.11-.17-.13-.31-.36-.41-.68-.45-1.72-1.04-2.9-1.77-3.55-.73-.64-1.62-.86-2.68-.66-.89.17-1.57.59-2.03,1.27-.46.68-.71,1.63-.75,2.86-.04,1.23.11,2.76.46,4.58.35,1.87.77,3.38,1.26,4.53.49,1.15,1.09,1.96,1.79,2.44.7.48,1.5.63,2.39.46.65-.12,1.19-.39,1.61-.81.43-.42.72-1.02.89-1.81.17-.79.17-1.84,0-3.16-.02-.33.03-.58.14-.75.12-.17.33-.28.66-.35l9.02-1.7c.32-.06.57-.03.74.08.17.12.28.34.35.66.81,5.19.11,9.25-2.12,12.17-2.22,2.92-5.53,4.8-9.92,5.63-4.96.94-9.1.13-12.44-2.41Z"/><path d="M696.84,948.53c-2.11-1.33-3.61-3.42-4.5-6.26-1.06-3.39-.78-6.2.86-8.43,1.64-2.23,4.04-3.83,7.19-4.82,1.14-.36,2.24-.58,3.3-.68,1.05-.09,2.13-.12,3.23-.07l-.91-2.9c-.5-1.58-1.15-2.65-1.95-3.22-.81-.57-1.78-.68-2.93-.32-2.25.71-3.08,2.46-2.5,5.27.1.32.1.56,0,.75-.09.18-.3.32-.62.42l-7.93,2.49c-.32.1-.58.09-.78-.01-.21-.11-.36-.32-.46-.64-1.15-4.36-.72-8.05,1.3-11.07,2.02-3.02,5.1-5.17,9.24-6.47,4.26-1.34,8.03-1.29,11.32.15,3.29,1.44,5.73,4.68,7.31,9.73l5.92,18.87c.1.32.1.56,0,.75-.1.18-.3.32-.62.42l-8.58,2.69c-.28.09-.51.09-.72,0-.2-.09-.39-.28-.57-.57l-2.17-5.04-.83.26c.31,2.24-.07,4.18-1.16,5.82-1.09,1.64-2.76,2.81-5,3.52-2.88.9-5.37.69-7.48-.64ZM709.78,938.1c.33-.8.29-1.87-.13-3.21-.41-1.3-.97-2.17-1.7-2.62-.72-.44-1.58-.51-2.57-.2-.99.31-1.65.86-1.98,1.66-.33.8-.3,1.83.09,3.09.41,1.3.98,2.19,1.72,2.68.74.48,1.6.57,2.58.26.99-.31,1.65-.86,1.98-1.66Z"/><path d="M732.83,936.19c-2.9-.93-5.17-3-6.81-6.21-.13-.3-.16-.55-.09-.74.07-.19.26-.35.56-.49l6.01-2.65c.26-.12.5-.14.71-.08.21.07.4.24.57.53.65,1.16,1.42,1.88,2.31,2.17.89.28,1.83.21,2.81-.23,1.02-.45,1.68-1.05,1.99-1.79.3-.74.27-1.53-.09-2.36-.3-.68-.78-1.17-1.43-1.47-.65-.3-1.38-.45-2.17-.46-.79,0-1.88.02-3.25.08-2.12.21-3.93.27-5.42.16-1.49-.11-2.95-.58-4.36-1.43-1.41-.84-2.55-2.25-3.42-4.22-.82-1.85-1.12-3.73-.9-5.64.22-1.9,1.06-3.71,2.52-5.42,1.46-1.71,3.61-3.19,6.44-4.44,3.86-1.7,7.23-2.14,10.13-1.32,2.89.82,5.08,2.67,6.58,5.53.17.29.22.52.15.71-.07.19-.26.35-.56.49l-5.96,2.63c-.3.13-.55.16-.74.09-.19-.07-.39-.25-.6-.51-.65-1.07-1.39-1.7-2.2-1.91-.81-.21-1.64-.12-2.47.24-.83.37-1.4.88-1.7,1.53-.3.65-.29,1.34.03,2.06.28.64.74,1.09,1.37,1.33.63.24,1.31.36,2.05.35s1.8-.05,3.17-.11c2.16-.23,4-.31,5.52-.23,1.52.07,3.02.54,4.49,1.41,1.47.87,2.66,2.34,3.58,4.42.94,2.12,1.25,4.22.96,6.32s-1.22,4.04-2.78,5.83c-1.56,1.79-3.73,3.31-6.53,4.54-4.08,1.8-7.57,2.24-10.47,1.3Z"/><path d="M743.57,891.02c-1.57-.3-2.75-1.15-3.52-2.57-.81-1.49-.92-2.99-.34-4.51.58-1.52,1.95-2.86,4.09-4.03,2.14-1.17,4-1.58,5.58-1.23,1.57.34,2.77,1.26,3.58,2.75.77,1.42.86,2.86.28,4.33-.59,1.47-1.95,2.79-4.09,3.96-2.14,1.17-4,1.6-5.57,1.3ZM761.58,925.15c-.22-.07-.41-.23-.54-.48l-15.86-29.14c-.16-.29-.2-.54-.12-.74.08-.21.26-.39.55-.55l9.2-5.01c.29-.16.53-.21.73-.15.2.06.37.23.53.52l15.86,29.13c.14.25.18.49.14.7-.05.21-.22.4-.51.56l-9.2,5.01c-.29.16-.55.2-.77.14Z"/><path d="M779.61,911.04c-4.1-.97-7.82-3.96-11.17-8.99-3.35-5.02-4.68-9.61-4-13.77.68-4.16,3.09-7.61,7.22-10.36,4.16-2.77,8.28-3.68,12.35-2.72,4.07.96,7.78,3.96,11.12,8.98,3.35,5.02,4.69,9.61,4.04,13.77-.65,4.16-3.06,7.63-7.22,10.4-4.13,2.75-8.24,3.64-12.34,2.67ZM787.42,896.78c-.21-1.35-1.1-3.22-2.68-5.59-1.56-2.34-2.93-3.87-4.11-4.6-1.18-.73-2.27-.76-3.27-.1-1,.67-1.39,1.67-1.19,3.03.21,1.35,1.08,3.18,2.61,5.49,1.08,1.62,2.05,2.84,2.93,3.67.88.83,1.68,1.34,2.42,1.51.74.18,1.44.05,2.09-.39,1-.66,1.39-1.67,1.19-3.03Z"/><path d="M810.62,894.05c-.23-.02-.44-.14-.63-.36l-21.57-25.2c-.21-.25-.31-.48-.27-.7.03-.22.17-.43.42-.65l7.96-6.81c.25-.21.48-.31.68-.3.2.02.41.15.63.4l5.44,6.36.66-.56c-1.93-2.7-2.9-5.15-2.9-7.35s1.11-4.25,3.34-6.16c2.13-1.83,4.31-2.55,6.52-2.15,2.21.39,4.35,1.8,6.42,4.21l16.13,18.84c.19.22.28.44.28.66,0,.22-.13.44-.38.65l-7.96,6.81c-.25.22-.49.31-.73.3-.23-.02-.44-.14-.63-.36l-12.86-15.03c-.73-.85-1.44-1.34-2.15-1.46-.71-.13-1.41.1-2.1.69-.94.81-1.34,1.68-1.19,2.61s.65,1.9,1.51,2.91l12.17,14.23c.19.22.28.44.28.66,0,.22-.13.44-.38.65l-7.96,6.81c-.25.22-.49.31-.73.3Z"/></g></svg>