<?xml version="1.0" encoding="UTF-8"?><svg id="Calque_2" xmlns="http://www.w3.org/2000/svg" viewBox="0 0 575.43 359.71"><defs><style>.cls-1{fill:#feeb09;}</style></defs><g id="Calque_1"><path class="cls-1" d="M287.72,253.76c-41.62,0-75.48-33.86-75.48-75.48h32c0,23.97,19.5,43.48,43.48,43.48s43.48-19.5,43.48-43.48h32c0,41.62-33.86,75.48-75.48,75.48Z"/><path class="cls-1" d="M287.72,308.28c-71.76,0-130.15-58.38-130.15-130.15S215.95,47.98,287.72,47.98s130.15,58.38,130.15,130.15-58.38,130.15-130.15,130.15ZM287.72,79.98c-54.12,0-98.15,44.03-98.15,98.15s44.03,98.15,98.15,98.15,98.15-44.03,98.15-98.15-44.03-98.15-98.15-98.15Z"/><path class="cls-1" d="M287.72,359.71c-42.59,0-84.05-9.1-123.24-27.06-31.15-14.27-60.9-34.12-88.4-59.01C29.42,231.44,5.4,189.51,4.4,187.74l-4.4-7.77,4.3-7.83c.97-1.77,24.34-43.78,70.71-86.04,27.32-24.91,57.04-44.77,88.34-59.06C202.67,9.1,244.52,0,287.72,0s85.04,9.1,124.36,27.05c31.29,14.28,61.01,34.15,88.34,59.06,46.37,42.27,69.74,84.27,70.71,86.04l4.3,7.83-4.4,7.77c-1,1.76-25.02,43.69-71.67,85.9-27.5,24.88-57.24,44.73-88.4,59.01-39.19,17.95-80.65,27.06-123.24,27.06ZM37.11,179.75c8.81,13.45,29.5,42.34,61.2,70.86,25.03,22.51,51.96,40.41,80.05,53.21,34.81,15.85,71.6,23.89,109.36,23.89s74.55-8.04,109.36-23.89c28.09-12.79,55.02-30.7,80.05-53.21,31.69-28.51,52.38-57.4,61.2-70.86-8.62-13.46-28.86-42.27-60.25-70.71-24.82-22.48-51.68-40.36-79.86-53.14-34.95-15.85-72.13-23.89-110.5-23.89s-75.55,8.04-110.5,23.89c-28.18,12.78-55.04,30.66-79.86,53.14-31.39,28.44-51.62,57.25-60.25,70.71Z"/></g></svg>